<?xml version="1.0" encoding="UTF-8"?>
<!-- RepresentańŃo simplificada em preto e branco para documentos. Substitua por arquivo oficial se desejado. -->
<svg xmlns="http://www.w3.org/2000/svg" viewBox="0 0 120 140" width="120" height="140">
  <rect width="120" height="140" fill="white"/>
  <!-- Arco de estrelas -->
  <g fill="black" stroke="none">
    <polygon points="60,12 62,18 68,18 63,22 65,28 60,24 55,28 57,22 52,18 58,18"/>
    <polygon points="20,38 22,44 28,44 23,48 25,54 20,50 15,54 17,48 12,44 18,44"/>
    <polygon points="100,38 102,44 108,44 103,48 105,54 100,50 95,54 97,48 92,44 98,44"/>
    <polygon points="8,72 10,78 16,78 11,82 13,88 8,84 3,88 5,82 0,78 6,78"/>
    <polygon points="112,72 114,78 120,78 115,82 117,88 112,84 107,88 109,82 104,78 110,78"/>
  </g>
  <!-- Escudo -->
  <path fill="none" stroke="black" stroke-width="2.5" d="M60,45 C35,45 22,68 22,92 C22,108 32,118 42,124 L60,135 L78,124 C88,118 98,108 98,92 C98,68 85,45 60,45 Z"/>
  <path fill="none" stroke="black" stroke-width="1.2" d="M60,55 C42,55 32,72 32,90 C32,100 38,108 46,112"/>
  <circle cx="60" cy="82" r="8" fill="none" stroke="black" stroke-width="1.5"/>
</svg>
